<mxfile host="app.diagrams.net" modified="2024-02-05T03:47:37.840Z" agent="Mozilla/5.0 (Windows NT 10.0; Win64; x64) AppleWebKit/537.36 (KHTML, like Gecko) Chrome/120.0.0.0 Safari/537.36" etag="Hl6eq8_j1T10CzncXeFP" version="23.1.1" type="device">
  <diagram name="Page-1" id="tAKnzZ_HvxSTqtd6DdSC">
    <mxGraphModel dx="3635" dy="1525" grid="1" gridSize="10" guides="1" tooltips="1" connect="1" arrows="1" fold="1" page="1" pageScale="1" pageWidth="850" pageHeight="1100" math="0" shadow="0">
      <root>
        <mxCell id="0" />
        <mxCell id="1" parent="0" />
        <mxCell id="rBNXE2SarJUZzVFOOV06-63" value="" style="shape=table;startSize=0;container=1;collapsible=0;childLayout=tableLayout;fontSize=16;" vertex="1" parent="1">
          <mxGeometry x="-540" y="85" width="640" height="40" as="geometry" />
        </mxCell>
        <mxCell id="rBNXE2SarJUZzVFOOV06-64" value="" style="shape=tableRow;horizontal=0;startSize=0;swimlaneHead=0;swimlaneBody=0;strokeColor=inherit;top=0;left=0;bottom=0;right=0;collapsible=0;dropTarget=0;fillColor=none;points=[[0,0.5],[1,0.5]];portConstraint=eastwest;fontSize=16;" vertex="1" parent="rBNXE2SarJUZzVFOOV06-63">
          <mxGeometry width="640" height="40" as="geometry" />
        </mxCell>
        <mxCell id="rBNXE2SarJUZzVFOOV06-65" value="&lt;u&gt;airport_id&lt;/u&gt;" style="shape=partialRectangle;html=1;whiteSpace=wrap;connectable=0;strokeColor=inherit;overflow=hidden;fillColor=none;top=0;left=0;bottom=0;right=0;pointerEvents=1;fontSize=16;" vertex="1" parent="rBNXE2SarJUZzVFOOV06-64">
          <mxGeometry width="90" height="40" as="geometry">
            <mxRectangle width="90" height="40" as="alternateBounds" />
          </mxGeometry>
        </mxCell>
        <mxCell id="rBNXE2SarJUZzVFOOV06-66" value="airport_code" style="shape=partialRectangle;html=1;whiteSpace=wrap;connectable=0;strokeColor=inherit;overflow=hidden;fillColor=none;top=0;left=0;bottom=0;right=0;pointerEvents=1;fontSize=16;" vertex="1" parent="rBNXE2SarJUZzVFOOV06-64">
          <mxGeometry x="90" width="110" height="40" as="geometry">
            <mxRectangle width="110" height="40" as="alternateBounds" />
          </mxGeometry>
        </mxCell>
        <mxCell id="rBNXE2SarJUZzVFOOV06-67" value="airport_name" style="shape=partialRectangle;html=1;whiteSpace=wrap;connectable=0;strokeColor=inherit;overflow=hidden;fillColor=none;top=0;left=0;bottom=0;right=0;pointerEvents=1;fontSize=16;" vertex="1" parent="rBNXE2SarJUZzVFOOV06-64">
          <mxGeometry x="200" width="110" height="40" as="geometry">
            <mxRectangle width="110" height="40" as="alternateBounds" />
          </mxGeometry>
        </mxCell>
        <mxCell id="rBNXE2SarJUZzVFOOV06-76" value="airport_city" style="shape=partialRectangle;html=1;whiteSpace=wrap;connectable=0;strokeColor=inherit;overflow=hidden;fillColor=none;top=0;left=0;bottom=0;right=0;pointerEvents=1;fontSize=16;" vertex="1" parent="rBNXE2SarJUZzVFOOV06-64">
          <mxGeometry x="310" width="100" height="40" as="geometry">
            <mxRectangle width="100" height="40" as="alternateBounds" />
          </mxGeometry>
        </mxCell>
        <mxCell id="rBNXE2SarJUZzVFOOV06-77" value="airport_state" style="shape=partialRectangle;html=1;whiteSpace=wrap;connectable=0;strokeColor=inherit;overflow=hidden;fillColor=none;top=0;left=0;bottom=0;right=0;pointerEvents=1;fontSize=16;" vertex="1" parent="rBNXE2SarJUZzVFOOV06-64">
          <mxGeometry x="410" width="110" height="40" as="geometry">
            <mxRectangle width="110" height="40" as="alternateBounds" />
          </mxGeometry>
        </mxCell>
        <mxCell id="rBNXE2SarJUZzVFOOV06-78" value="airport_country" style="shape=partialRectangle;html=1;whiteSpace=wrap;connectable=0;strokeColor=inherit;overflow=hidden;fillColor=none;top=0;left=0;bottom=0;right=0;pointerEvents=1;fontSize=16;" vertex="1" parent="rBNXE2SarJUZzVFOOV06-64">
          <mxGeometry x="520" width="120" height="40" as="geometry">
            <mxRectangle width="120" height="40" as="alternateBounds" />
          </mxGeometry>
        </mxCell>
        <mxCell id="rBNXE2SarJUZzVFOOV06-79" value="" style="shape=table;startSize=0;container=1;collapsible=0;childLayout=tableLayout;fontSize=16;" vertex="1" parent="1">
          <mxGeometry x="-540" y="885" width="723" height="40" as="geometry" />
        </mxCell>
        <mxCell id="rBNXE2SarJUZzVFOOV06-80" value="" style="shape=tableRow;horizontal=0;startSize=0;swimlaneHead=0;swimlaneBody=0;strokeColor=inherit;top=0;left=0;bottom=0;right=0;collapsible=0;dropTarget=0;fillColor=none;points=[[0,0.5],[1,0.5]];portConstraint=eastwest;fontSize=16;" vertex="1" parent="rBNXE2SarJUZzVFOOV06-79">
          <mxGeometry width="723" height="40" as="geometry" />
        </mxCell>
        <mxCell id="rBNXE2SarJUZzVFOOV06-81" value="&lt;u&gt;employee_id&lt;/u&gt;" style="shape=partialRectangle;html=1;whiteSpace=wrap;connectable=0;strokeColor=inherit;overflow=hidden;fillColor=none;top=0;left=0;bottom=0;right=0;pointerEvents=1;fontSize=16;" vertex="1" parent="rBNXE2SarJUZzVFOOV06-80">
          <mxGeometry width="120" height="40" as="geometry">
            <mxRectangle width="120" height="40" as="alternateBounds" />
          </mxGeometry>
        </mxCell>
        <mxCell id="rBNXE2SarJUZzVFOOV06-82" value="employee_name" style="shape=partialRectangle;html=1;whiteSpace=wrap;connectable=0;strokeColor=inherit;overflow=hidden;fillColor=none;top=0;left=0;bottom=0;right=0;pointerEvents=1;fontSize=16;" vertex="1" parent="rBNXE2SarJUZzVFOOV06-80">
          <mxGeometry x="120" width="158" height="40" as="geometry">
            <mxRectangle width="158" height="40" as="alternateBounds" />
          </mxGeometry>
        </mxCell>
        <mxCell id="rBNXE2SarJUZzVFOOV06-83" value="employee_email" style="shape=partialRectangle;html=1;whiteSpace=wrap;connectable=0;strokeColor=inherit;overflow=hidden;fillColor=none;top=0;left=0;bottom=0;right=0;pointerEvents=1;fontSize=16;" vertex="1" parent="rBNXE2SarJUZzVFOOV06-80">
          <mxGeometry x="278" width="154" height="40" as="geometry">
            <mxRectangle width="154" height="40" as="alternateBounds" />
          </mxGeometry>
        </mxCell>
        <mxCell id="rBNXE2SarJUZzVFOOV06-84" value="employee_phone" style="shape=partialRectangle;html=1;whiteSpace=wrap;connectable=0;strokeColor=inherit;overflow=hidden;fillColor=none;top=0;left=0;bottom=0;right=0;pointerEvents=1;fontSize=16;" vertex="1" parent="rBNXE2SarJUZzVFOOV06-80">
          <mxGeometry x="432" width="138" height="40" as="geometry">
            <mxRectangle width="138" height="40" as="alternateBounds" />
          </mxGeometry>
        </mxCell>
        <mxCell id="rBNXE2SarJUZzVFOOV06-85" value="employee_position" style="shape=partialRectangle;html=1;whiteSpace=wrap;connectable=0;strokeColor=inherit;overflow=hidden;fillColor=none;top=0;left=0;bottom=0;right=0;pointerEvents=1;fontSize=16;" vertex="1" parent="rBNXE2SarJUZzVFOOV06-80">
          <mxGeometry x="570" width="153" height="40" as="geometry">
            <mxRectangle width="153" height="40" as="alternateBounds" />
          </mxGeometry>
        </mxCell>
        <mxCell id="rBNXE2SarJUZzVFOOV06-87" value="" style="shape=table;startSize=0;container=1;collapsible=0;childLayout=tableLayout;fontSize=16;" vertex="1" parent="1">
          <mxGeometry x="-540" y="545" width="876" height="40" as="geometry" />
        </mxCell>
        <mxCell id="rBNXE2SarJUZzVFOOV06-88" value="" style="shape=tableRow;horizontal=0;startSize=0;swimlaneHead=0;swimlaneBody=0;strokeColor=inherit;top=0;left=0;bottom=0;right=0;collapsible=0;dropTarget=0;fillColor=none;points=[[0,0.5],[1,0.5]];portConstraint=eastwest;fontSize=16;" vertex="1" parent="rBNXE2SarJUZzVFOOV06-87">
          <mxGeometry width="876" height="40" as="geometry" />
        </mxCell>
        <mxCell id="rBNXE2SarJUZzVFOOV06-89" value="&lt;u&gt;flight_id&lt;/u&gt;" style="shape=partialRectangle;html=1;whiteSpace=wrap;connectable=0;strokeColor=inherit;overflow=hidden;fillColor=none;top=0;left=0;bottom=0;right=0;pointerEvents=1;fontSize=16;" vertex="1" parent="rBNXE2SarJUZzVFOOV06-88">
          <mxGeometry width="125" height="40" as="geometry">
            <mxRectangle width="125" height="40" as="alternateBounds" />
          </mxGeometry>
        </mxCell>
        <mxCell id="rBNXE2SarJUZzVFOOV06-90" value="flight_number" style="shape=partialRectangle;html=1;whiteSpace=wrap;connectable=0;strokeColor=inherit;overflow=hidden;fillColor=none;top=0;left=0;bottom=0;right=0;pointerEvents=1;fontSize=16;" vertex="1" parent="rBNXE2SarJUZzVFOOV06-88">
          <mxGeometry x="125" width="153" height="40" as="geometry">
            <mxRectangle width="153" height="40" as="alternateBounds" />
          </mxGeometry>
        </mxCell>
        <mxCell id="rBNXE2SarJUZzVFOOV06-91" value="&lt;u style=&quot;text-decoration: underline dashed; text-underline-position: under&quot;&gt;departure_airport_id&lt;/u&gt;" style="shape=partialRectangle;html=1;whiteSpace=wrap;connectable=0;strokeColor=inherit;overflow=hidden;fillColor=none;top=0;left=0;bottom=0;right=0;pointerEvents=1;fontSize=16;" vertex="1" parent="rBNXE2SarJUZzVFOOV06-88">
          <mxGeometry x="278" width="154" height="40" as="geometry">
            <mxRectangle width="154" height="40" as="alternateBounds" />
          </mxGeometry>
        </mxCell>
        <mxCell id="rBNXE2SarJUZzVFOOV06-92" value="&lt;u style=&quot;border-color: var(--border-color); text-decoration-style: dashed; text-underline-position: under;&quot;&gt;arrival_airport_id&lt;/u&gt;" style="shape=partialRectangle;html=1;whiteSpace=wrap;connectable=0;strokeColor=inherit;overflow=hidden;fillColor=none;top=0;left=0;bottom=0;right=0;pointerEvents=1;fontSize=16;" vertex="1" parent="rBNXE2SarJUZzVFOOV06-88">
          <mxGeometry x="432" width="138" height="40" as="geometry">
            <mxRectangle width="138" height="40" as="alternateBounds" />
          </mxGeometry>
        </mxCell>
        <mxCell id="rBNXE2SarJUZzVFOOV06-93" value="departure_time" style="shape=partialRectangle;html=1;whiteSpace=wrap;connectable=0;strokeColor=inherit;overflow=hidden;fillColor=none;top=0;left=0;bottom=0;right=0;pointerEvents=1;fontSize=16;" vertex="1" parent="rBNXE2SarJUZzVFOOV06-88">
          <mxGeometry x="570" width="153" height="40" as="geometry">
            <mxRectangle width="153" height="40" as="alternateBounds" />
          </mxGeometry>
        </mxCell>
        <mxCell id="rBNXE2SarJUZzVFOOV06-94" value="&lt;u style=&quot;border-color: var(--border-color); text-decoration-style: dashed; text-underline-position: under;&quot;&gt;aircraft_id&lt;/u&gt;" style="shape=partialRectangle;html=1;whiteSpace=wrap;connectable=0;strokeColor=inherit;overflow=hidden;fillColor=none;top=0;left=0;bottom=0;right=0;pointerEvents=1;fontSize=16;" vertex="1" parent="rBNXE2SarJUZzVFOOV06-88">
          <mxGeometry x="723" width="153" height="40" as="geometry">
            <mxRectangle width="153" height="40" as="alternateBounds" />
          </mxGeometry>
        </mxCell>
        <mxCell id="rBNXE2SarJUZzVFOOV06-95" value="" style="shape=table;startSize=0;container=1;collapsible=0;childLayout=tableLayout;fontSize=16;" vertex="1" parent="1">
          <mxGeometry x="183" y="1005" width="432" height="40" as="geometry" />
        </mxCell>
        <mxCell id="rBNXE2SarJUZzVFOOV06-96" value="" style="shape=tableRow;horizontal=0;startSize=0;swimlaneHead=0;swimlaneBody=0;strokeColor=inherit;top=0;left=0;bottom=0;right=0;collapsible=0;dropTarget=0;fillColor=none;points=[[0,0.5],[1,0.5]];portConstraint=eastwest;fontSize=16;" vertex="1" parent="rBNXE2SarJUZzVFOOV06-95">
          <mxGeometry width="432" height="40" as="geometry" />
        </mxCell>
        <mxCell id="rBNXE2SarJUZzVFOOV06-97" value="&lt;u&gt;flight_crew_id&lt;/u&gt;" style="shape=partialRectangle;html=1;whiteSpace=wrap;connectable=0;strokeColor=inherit;overflow=hidden;fillColor=none;top=0;left=0;bottom=0;right=0;pointerEvents=1;fontSize=16;" vertex="1" parent="rBNXE2SarJUZzVFOOV06-96">
          <mxGeometry width="120" height="40" as="geometry">
            <mxRectangle width="120" height="40" as="alternateBounds" />
          </mxGeometry>
        </mxCell>
        <mxCell id="rBNXE2SarJUZzVFOOV06-98" value="&lt;u style=&quot;border-color: var(--border-color); text-decoration-style: dashed; text-underline-position: under;&quot;&gt;employee_id&lt;/u&gt;" style="shape=partialRectangle;html=1;whiteSpace=wrap;connectable=0;strokeColor=inherit;overflow=hidden;fillColor=none;top=0;left=0;bottom=0;right=0;pointerEvents=1;fontSize=16;" vertex="1" parent="rBNXE2SarJUZzVFOOV06-96">
          <mxGeometry x="120" width="158" height="40" as="geometry">
            <mxRectangle width="158" height="40" as="alternateBounds" />
          </mxGeometry>
        </mxCell>
        <mxCell id="rBNXE2SarJUZzVFOOV06-99" value="&lt;u style=&quot;border-color: var(--border-color); text-decoration-style: dashed; text-underline-position: under;&quot;&gt;flight_id&lt;/u&gt;" style="shape=partialRectangle;html=1;whiteSpace=wrap;connectable=0;strokeColor=inherit;overflow=hidden;fillColor=none;top=0;left=0;bottom=0;right=0;pointerEvents=1;fontSize=16;" vertex="1" parent="rBNXE2SarJUZzVFOOV06-96">
          <mxGeometry x="278" width="154" height="40" as="geometry">
            <mxRectangle width="154" height="40" as="alternateBounds" />
          </mxGeometry>
        </mxCell>
        <mxCell id="rBNXE2SarJUZzVFOOV06-102" value="" style="shape=table;startSize=0;container=1;collapsible=0;childLayout=tableLayout;fontSize=16;" vertex="1" parent="1">
          <mxGeometry x="-458" y="165" width="586" height="40" as="geometry" />
        </mxCell>
        <mxCell id="rBNXE2SarJUZzVFOOV06-103" value="" style="shape=tableRow;horizontal=0;startSize=0;swimlaneHead=0;swimlaneBody=0;strokeColor=inherit;top=0;left=0;bottom=0;right=0;collapsible=0;dropTarget=0;fillColor=none;points=[[0,0.5],[1,0.5]];portConstraint=eastwest;fontSize=16;" vertex="1" parent="rBNXE2SarJUZzVFOOV06-102">
          <mxGeometry width="586" height="40" as="geometry" />
        </mxCell>
        <mxCell id="rBNXE2SarJUZzVFOOV06-104" value="&lt;u&gt;aircraft_id&lt;/u&gt;" style="shape=partialRectangle;html=1;whiteSpace=wrap;connectable=0;strokeColor=inherit;overflow=hidden;fillColor=none;top=0;left=0;bottom=0;right=0;pointerEvents=1;fontSize=16;" vertex="1" parent="rBNXE2SarJUZzVFOOV06-103">
          <mxGeometry width="120" height="40" as="geometry">
            <mxRectangle width="120" height="40" as="alternateBounds" />
          </mxGeometry>
        </mxCell>
        <mxCell id="rBNXE2SarJUZzVFOOV06-105" value="aircraft_name" style="shape=partialRectangle;html=1;whiteSpace=wrap;connectable=0;strokeColor=inherit;overflow=hidden;fillColor=none;top=0;left=0;bottom=0;right=0;pointerEvents=1;fontSize=16;" vertex="1" parent="rBNXE2SarJUZzVFOOV06-103">
          <mxGeometry x="120" width="158" height="40" as="geometry">
            <mxRectangle width="158" height="40" as="alternateBounds" />
          </mxGeometry>
        </mxCell>
        <mxCell id="rBNXE2SarJUZzVFOOV06-106" value="aircraft_type" style="shape=partialRectangle;html=1;whiteSpace=wrap;connectable=0;strokeColor=inherit;overflow=hidden;fillColor=none;top=0;left=0;bottom=0;right=0;pointerEvents=1;fontSize=16;" vertex="1" parent="rBNXE2SarJUZzVFOOV06-103">
          <mxGeometry x="278" width="154" height="40" as="geometry">
            <mxRectangle width="154" height="40" as="alternateBounds" />
          </mxGeometry>
        </mxCell>
        <mxCell id="rBNXE2SarJUZzVFOOV06-107" value="aircraft_capacity" style="shape=partialRectangle;html=1;whiteSpace=wrap;connectable=0;strokeColor=inherit;overflow=hidden;fillColor=none;top=0;left=0;bottom=0;right=0;pointerEvents=1;fontSize=16;" vertex="1" parent="rBNXE2SarJUZzVFOOV06-103">
          <mxGeometry x="432" width="154" height="40" as="geometry">
            <mxRectangle width="154" height="40" as="alternateBounds" />
          </mxGeometry>
        </mxCell>
        <mxCell id="rBNXE2SarJUZzVFOOV06-109" value="" style="shape=table;startSize=0;container=1;collapsible=0;childLayout=tableLayout;fontSize=16;" vertex="1" parent="1">
          <mxGeometry x="-380" y="285" width="586" height="40" as="geometry" />
        </mxCell>
        <mxCell id="rBNXE2SarJUZzVFOOV06-110" value="" style="shape=tableRow;horizontal=0;startSize=0;swimlaneHead=0;swimlaneBody=0;strokeColor=inherit;top=0;left=0;bottom=0;right=0;collapsible=0;dropTarget=0;fillColor=none;points=[[0,0.5],[1,0.5]];portConstraint=eastwest;fontSize=16;" vertex="1" parent="rBNXE2SarJUZzVFOOV06-109">
          <mxGeometry width="586" height="40" as="geometry" />
        </mxCell>
        <mxCell id="rBNXE2SarJUZzVFOOV06-111" value="&lt;u&gt;seat_id&lt;/u&gt;" style="shape=partialRectangle;html=1;whiteSpace=wrap;connectable=0;strokeColor=inherit;overflow=hidden;fillColor=none;top=0;left=0;bottom=0;right=0;pointerEvents=1;fontSize=16;" vertex="1" parent="rBNXE2SarJUZzVFOOV06-110">
          <mxGeometry width="120" height="40" as="geometry">
            <mxRectangle width="120" height="40" as="alternateBounds" />
          </mxGeometry>
        </mxCell>
        <mxCell id="rBNXE2SarJUZzVFOOV06-112" value="&lt;u style=&quot;border-color: var(--border-color); text-decoration-style: dashed; text-underline-position: under;&quot;&gt;aircraft_id&lt;/u&gt;" style="shape=partialRectangle;html=1;whiteSpace=wrap;connectable=0;strokeColor=inherit;overflow=hidden;fillColor=none;top=0;left=0;bottom=0;right=0;pointerEvents=1;fontSize=16;" vertex="1" parent="rBNXE2SarJUZzVFOOV06-110">
          <mxGeometry x="120" width="158" height="40" as="geometry">
            <mxRectangle width="158" height="40" as="alternateBounds" />
          </mxGeometry>
        </mxCell>
        <mxCell id="rBNXE2SarJUZzVFOOV06-113" value="seat_number" style="shape=partialRectangle;html=1;whiteSpace=wrap;connectable=0;strokeColor=inherit;overflow=hidden;fillColor=none;top=0;left=0;bottom=0;right=0;pointerEvents=1;fontSize=16;" vertex="1" parent="rBNXE2SarJUZzVFOOV06-110">
          <mxGeometry x="278" width="154" height="40" as="geometry">
            <mxRectangle width="154" height="40" as="alternateBounds" />
          </mxGeometry>
        </mxCell>
        <mxCell id="rBNXE2SarJUZzVFOOV06-114" value="seat_class" style="shape=partialRectangle;html=1;whiteSpace=wrap;connectable=0;strokeColor=inherit;overflow=hidden;fillColor=none;top=0;left=0;bottom=0;right=0;pointerEvents=1;fontSize=16;" vertex="1" parent="rBNXE2SarJUZzVFOOV06-110">
          <mxGeometry x="432" width="154" height="40" as="geometry">
            <mxRectangle width="154" height="40" as="alternateBounds" />
          </mxGeometry>
        </mxCell>
        <mxCell id="rBNXE2SarJUZzVFOOV06-115" value="" style="shape=table;startSize=0;container=1;collapsible=0;childLayout=tableLayout;fontSize=16;" vertex="1" parent="1">
          <mxGeometry x="-420" y="625" width="723" height="40" as="geometry" />
        </mxCell>
        <mxCell id="rBNXE2SarJUZzVFOOV06-116" value="" style="shape=tableRow;horizontal=0;startSize=0;swimlaneHead=0;swimlaneBody=0;strokeColor=inherit;top=0;left=0;bottom=0;right=0;collapsible=0;dropTarget=0;fillColor=none;points=[[0,0.5],[1,0.5]];portConstraint=eastwest;fontSize=16;" vertex="1" parent="rBNXE2SarJUZzVFOOV06-115">
          <mxGeometry width="723" height="40" as="geometry" />
        </mxCell>
        <mxCell id="rBNXE2SarJUZzVFOOV06-117" value="&lt;u&gt;passenger_id&lt;/u&gt;" style="shape=partialRectangle;html=1;whiteSpace=wrap;connectable=0;strokeColor=inherit;overflow=hidden;fillColor=none;top=0;left=0;bottom=0;right=0;pointerEvents=1;fontSize=16;" vertex="1" parent="rBNXE2SarJUZzVFOOV06-116">
          <mxGeometry width="125" height="40" as="geometry">
            <mxRectangle width="125" height="40" as="alternateBounds" />
          </mxGeometry>
        </mxCell>
        <mxCell id="rBNXE2SarJUZzVFOOV06-118" value="passenger_name" style="shape=partialRectangle;html=1;whiteSpace=wrap;connectable=0;strokeColor=inherit;overflow=hidden;fillColor=none;top=0;left=0;bottom=0;right=0;pointerEvents=1;fontSize=16;" vertex="1" parent="rBNXE2SarJUZzVFOOV06-116">
          <mxGeometry x="125" width="153" height="40" as="geometry">
            <mxRectangle width="153" height="40" as="alternateBounds" />
          </mxGeometry>
        </mxCell>
        <mxCell id="rBNXE2SarJUZzVFOOV06-119" value="passenger_address" style="shape=partialRectangle;html=1;whiteSpace=wrap;connectable=0;strokeColor=inherit;overflow=hidden;fillColor=none;top=0;left=0;bottom=0;right=0;pointerEvents=1;fontSize=16;" vertex="1" parent="rBNXE2SarJUZzVFOOV06-116">
          <mxGeometry x="278" width="154" height="40" as="geometry">
            <mxRectangle width="154" height="40" as="alternateBounds" />
          </mxGeometry>
        </mxCell>
        <mxCell id="rBNXE2SarJUZzVFOOV06-120" value="passenger_email" style="shape=partialRectangle;html=1;whiteSpace=wrap;connectable=0;strokeColor=inherit;overflow=hidden;fillColor=none;top=0;left=0;bottom=0;right=0;pointerEvents=1;fontSize=16;" vertex="1" parent="rBNXE2SarJUZzVFOOV06-116">
          <mxGeometry x="432" width="138" height="40" as="geometry">
            <mxRectangle width="138" height="40" as="alternateBounds" />
          </mxGeometry>
        </mxCell>
        <mxCell id="rBNXE2SarJUZzVFOOV06-121" value="passenger_phone" style="shape=partialRectangle;html=1;whiteSpace=wrap;connectable=0;strokeColor=inherit;overflow=hidden;fillColor=none;top=0;left=0;bottom=0;right=0;pointerEvents=1;fontSize=16;" vertex="1" parent="rBNXE2SarJUZzVFOOV06-116">
          <mxGeometry x="570" width="153" height="40" as="geometry">
            <mxRectangle width="153" height="40" as="alternateBounds" />
          </mxGeometry>
        </mxCell>
        <mxCell id="rBNXE2SarJUZzVFOOV06-123" value="" style="shape=table;startSize=0;container=1;collapsible=0;childLayout=tableLayout;fontSize=16;" vertex="1" parent="1">
          <mxGeometry x="-160" y="705" width="723" height="40" as="geometry" />
        </mxCell>
        <mxCell id="rBNXE2SarJUZzVFOOV06-124" value="" style="shape=tableRow;horizontal=0;startSize=0;swimlaneHead=0;swimlaneBody=0;strokeColor=inherit;top=0;left=0;bottom=0;right=0;collapsible=0;dropTarget=0;fillColor=none;points=[[0,0.5],[1,0.5]];portConstraint=eastwest;fontSize=16;" vertex="1" parent="rBNXE2SarJUZzVFOOV06-123">
          <mxGeometry width="723" height="40" as="geometry" />
        </mxCell>
        <mxCell id="rBNXE2SarJUZzVFOOV06-125" value="&lt;u&gt;booking_id&lt;/u&gt;" style="shape=partialRectangle;html=1;whiteSpace=wrap;connectable=0;strokeColor=inherit;overflow=hidden;fillColor=none;top=0;left=0;bottom=0;right=0;pointerEvents=1;fontSize=16;" vertex="1" parent="rBNXE2SarJUZzVFOOV06-124">
          <mxGeometry width="125" height="40" as="geometry">
            <mxRectangle width="125" height="40" as="alternateBounds" />
          </mxGeometry>
        </mxCell>
        <mxCell id="rBNXE2SarJUZzVFOOV06-126" value="&lt;u style=&quot;border-color: var(--border-color); text-decoration-style: dashed; text-underline-position: under;&quot;&gt;passenger_id&lt;/u&gt;" style="shape=partialRectangle;html=1;whiteSpace=wrap;connectable=0;strokeColor=inherit;overflow=hidden;fillColor=none;top=0;left=0;bottom=0;right=0;pointerEvents=1;fontSize=16;" vertex="1" parent="rBNXE2SarJUZzVFOOV06-124">
          <mxGeometry x="125" width="153" height="40" as="geometry">
            <mxRectangle width="153" height="40" as="alternateBounds" />
          </mxGeometry>
        </mxCell>
        <mxCell id="rBNXE2SarJUZzVFOOV06-127" value="&lt;u style=&quot;border-color: var(--border-color); text-decoration-style: dashed; text-underline-position: under;&quot;&gt;flight_id&lt;br&gt;&lt;/u&gt;" style="shape=partialRectangle;html=1;whiteSpace=wrap;connectable=0;strokeColor=inherit;overflow=hidden;fillColor=none;top=0;left=0;bottom=0;right=0;pointerEvents=1;fontSize=16;" vertex="1" parent="rBNXE2SarJUZzVFOOV06-124">
          <mxGeometry x="278" width="154" height="40" as="geometry">
            <mxRectangle width="154" height="40" as="alternateBounds" />
          </mxGeometry>
        </mxCell>
        <mxCell id="rBNXE2SarJUZzVFOOV06-128" value="&lt;u style=&quot;border-color: var(--border-color); text-decoration-style: dashed; text-underline-position: under;&quot;&gt;seat_id&lt;/u&gt;" style="shape=partialRectangle;html=1;whiteSpace=wrap;connectable=0;strokeColor=inherit;overflow=hidden;fillColor=none;top=0;left=0;bottom=0;right=0;pointerEvents=1;fontSize=16;" vertex="1" parent="rBNXE2SarJUZzVFOOV06-124">
          <mxGeometry x="432" width="138" height="40" as="geometry">
            <mxRectangle width="138" height="40" as="alternateBounds" />
          </mxGeometry>
        </mxCell>
        <mxCell id="rBNXE2SarJUZzVFOOV06-129" value="booking_date" style="shape=partialRectangle;html=1;whiteSpace=wrap;connectable=0;strokeColor=inherit;overflow=hidden;fillColor=none;top=0;left=0;bottom=0;right=0;pointerEvents=1;fontSize=16;" vertex="1" parent="rBNXE2SarJUZzVFOOV06-124">
          <mxGeometry x="570" width="153" height="40" as="geometry">
            <mxRectangle width="153" height="40" as="alternateBounds" />
          </mxGeometry>
        </mxCell>
        <mxCell id="rBNXE2SarJUZzVFOOV06-131" value="" style="edgeStyle=elbowEdgeStyle;elbow=vertical;endArrow=classic;html=1;curved=0;rounded=0;endSize=8;startSize=8;entryX=0.019;entryY=1.112;entryDx=0;entryDy=0;entryPerimeter=0;exitX=0.4;exitY=-0.044;exitDx=0;exitDy=0;exitPerimeter=0;" edge="1" parent="1" source="rBNXE2SarJUZzVFOOV06-88" target="rBNXE2SarJUZzVFOOV06-64">
          <mxGeometry width="50" height="50" relative="1" as="geometry">
            <mxPoint x="-180" y="285" as="sourcePoint" />
            <mxPoint x="-130" y="235" as="targetPoint" />
            <Array as="points">
              <mxPoint x="-360" y="485" />
            </Array>
          </mxGeometry>
        </mxCell>
        <mxCell id="rBNXE2SarJUZzVFOOV06-132" value="" style="edgeStyle=elbowEdgeStyle;elbow=vertical;endArrow=classic;html=1;curved=0;rounded=0;endSize=8;startSize=8;entryX=0.064;entryY=1.144;entryDx=0;entryDy=0;entryPerimeter=0;exitX=0.569;exitY=-0.138;exitDx=0;exitDy=0;exitPerimeter=0;" edge="1" parent="1" source="rBNXE2SarJUZzVFOOV06-88" target="rBNXE2SarJUZzVFOOV06-64">
          <mxGeometry width="50" height="50" relative="1" as="geometry">
            <mxPoint x="-32" y="283" as="sourcePoint" />
            <mxPoint x="-380" y="47" as="targetPoint" />
            <Array as="points">
              <mxPoint x="-270" y="445" />
            </Array>
          </mxGeometry>
        </mxCell>
        <mxCell id="rBNXE2SarJUZzVFOOV06-133" value="" style="edgeStyle=elbowEdgeStyle;elbow=vertical;endArrow=classic;html=1;curved=0;rounded=0;endSize=8;startSize=8;entryX=0.041;entryY=1.081;entryDx=0;entryDy=0;entryPerimeter=0;exitX=0.913;exitY=-0.169;exitDx=0;exitDy=0;exitPerimeter=0;" edge="1" parent="1" source="rBNXE2SarJUZzVFOOV06-88" target="rBNXE2SarJUZzVFOOV06-103">
          <mxGeometry width="50" height="50" relative="1" as="geometry">
            <mxPoint x="260" y="295" as="sourcePoint" />
            <mxPoint x="-197" y="57" as="targetPoint" />
            <Array as="points">
              <mxPoint x="-80" y="405" />
            </Array>
          </mxGeometry>
        </mxCell>
        <mxCell id="rBNXE2SarJUZzVFOOV06-134" value="" style="edgeStyle=elbowEdgeStyle;elbow=vertical;endArrow=classic;html=1;curved=0;rounded=0;endSize=8;startSize=8;entryX=0.027;entryY=1.112;entryDx=0;entryDy=0;entryPerimeter=0;exitX=0.832;exitY=-0.075;exitDx=0;exitDy=0;exitPerimeter=0;" edge="1" parent="1" source="rBNXE2SarJUZzVFOOV06-96" target="rBNXE2SarJUZzVFOOV06-88">
          <mxGeometry width="50" height="50" relative="1" as="geometry">
            <mxPoint x="-142" y="579" as="sourcePoint" />
            <mxPoint x="-480" y="335" as="targetPoint" />
            <Array as="points">
              <mxPoint x="10" y="845" />
            </Array>
          </mxGeometry>
        </mxCell>
        <mxCell id="rBNXE2SarJUZzVFOOV06-135" value="" style="edgeStyle=elbowEdgeStyle;elbow=vertical;endArrow=classic;html=1;curved=0;rounded=0;endSize=8;startSize=8;entryX=0.134;entryY=0.956;entryDx=0;entryDy=0;entryPerimeter=0;exitX=0.34;exitY=0.019;exitDx=0;exitDy=0;exitPerimeter=0;" edge="1" parent="1" source="rBNXE2SarJUZzVFOOV06-110" target="rBNXE2SarJUZzVFOOV06-103">
          <mxGeometry width="50" height="50" relative="1" as="geometry">
            <mxPoint x="703" y="427" as="sourcePoint" />
            <mxPoint x="160" y="265" as="targetPoint" />
            <Array as="points" />
          </mxGeometry>
        </mxCell>
        <mxCell id="rBNXE2SarJUZzVFOOV06-136" value="" style="edgeStyle=elbowEdgeStyle;elbow=vertical;endArrow=classic;html=1;curved=0;rounded=0;endSize=8;startSize=8;entryX=0.071;entryY=1.05;entryDx=0;entryDy=0;entryPerimeter=0;exitX=0.483;exitY=0.956;exitDx=0;exitDy=0;exitPerimeter=0;" edge="1" parent="1" source="rBNXE2SarJUZzVFOOV06-124" target="rBNXE2SarJUZzVFOOV06-88">
          <mxGeometry width="50" height="50" relative="1" as="geometry">
            <mxPoint x="-231" y="756" as="sourcePoint" />
            <mxPoint x="-506" y="499" as="targetPoint" />
            <Array as="points">
              <mxPoint x="-110" y="805" />
            </Array>
          </mxGeometry>
        </mxCell>
        <mxCell id="rBNXE2SarJUZzVFOOV06-137" value="" style="edgeStyle=elbowEdgeStyle;elbow=vertical;endArrow=classic;html=1;curved=0;rounded=0;endSize=8;startSize=8;entryX=0.077;entryY=1.05;entryDx=0;entryDy=0;entryPerimeter=0;exitX=0.278;exitY=1.05;exitDx=0;exitDy=0;exitPerimeter=0;" edge="1" parent="1" source="rBNXE2SarJUZzVFOOV06-124" target="rBNXE2SarJUZzVFOOV06-116">
          <mxGeometry width="50" height="50" relative="1" as="geometry">
            <mxPoint x="100" y="755" as="sourcePoint" />
            <mxPoint x="-506" y="499" as="targetPoint" />
            <Array as="points">
              <mxPoint x="-120" y="765" />
            </Array>
          </mxGeometry>
        </mxCell>
        <mxCell id="rBNXE2SarJUZzVFOOV06-138" value="" style="edgeStyle=elbowEdgeStyle;elbow=vertical;endArrow=classic;html=1;curved=0;rounded=0;endSize=8;startSize=8;entryX=0.114;entryY=1.081;entryDx=0;entryDy=0;entryPerimeter=0;exitX=0.708;exitY=-0.106;exitDx=0;exitDy=0;exitPerimeter=0;" edge="1" parent="1" source="rBNXE2SarJUZzVFOOV06-124" target="rBNXE2SarJUZzVFOOV06-110">
          <mxGeometry width="50" height="50" relative="1" as="geometry">
            <mxPoint x="-210" y="631" as="sourcePoint" />
            <mxPoint x="-354" y="577" as="targetPoint" />
            <Array as="points">
              <mxPoint x="100" y="365" />
            </Array>
          </mxGeometry>
        </mxCell>
        <mxCell id="rBNXE2SarJUZzVFOOV06-139" value="" style="edgeStyle=elbowEdgeStyle;elbow=vertical;endArrow=classic;html=1;curved=0;rounded=0;endSize=8;startSize=8;entryX=0.076;entryY=0.987;entryDx=0;entryDy=0;entryPerimeter=0;exitX=0.462;exitY=-0.044;exitDx=0;exitDy=0;exitPerimeter=0;" edge="1" parent="1" source="rBNXE2SarJUZzVFOOV06-96" target="rBNXE2SarJUZzVFOOV06-80">
          <mxGeometry width="50" height="50" relative="1" as="geometry">
            <mxPoint x="70" y="945" as="sourcePoint" />
            <mxPoint x="-506" y="499" as="targetPoint" />
            <Array as="points">
              <mxPoint x="-40" y="965" />
            </Array>
          </mxGeometry>
        </mxCell>
        <mxCell id="rBNXE2SarJUZzVFOOV06-140" value="Airport" style="text;strokeColor=none;fillColor=none;html=1;fontSize=18;fontStyle=1;verticalAlign=middle;align=left;labelPosition=center;verticalLabelPosition=middle;" vertex="1" parent="1">
          <mxGeometry x="-540" y="55" width="100" height="30" as="geometry" />
        </mxCell>
        <mxCell id="rBNXE2SarJUZzVFOOV06-141" value="Aircraft" style="text;strokeColor=none;fillColor=none;html=1;fontSize=18;fontStyle=1;verticalAlign=middle;align=left;labelPosition=center;verticalLabelPosition=middle;" vertex="1" parent="1">
          <mxGeometry x="-458" y="135" width="100" height="30" as="geometry" />
        </mxCell>
        <mxCell id="rBNXE2SarJUZzVFOOV06-142" value="Seat" style="text;strokeColor=none;fillColor=none;html=1;fontSize=18;fontStyle=1;verticalAlign=middle;align=left;labelPosition=center;verticalLabelPosition=middle;" vertex="1" parent="1">
          <mxGeometry x="-380" y="255" width="100" height="30" as="geometry" />
        </mxCell>
        <mxCell id="rBNXE2SarJUZzVFOOV06-143" value="Flight" style="text;strokeColor=none;fillColor=none;html=1;fontSize=18;fontStyle=1;verticalAlign=middle;align=left;labelPosition=center;verticalLabelPosition=middle;" vertex="1" parent="1">
          <mxGeometry x="-540" y="515" width="100" height="30" as="geometry" />
        </mxCell>
        <mxCell id="rBNXE2SarJUZzVFOOV06-144" value="Passenger" style="text;strokeColor=none;fillColor=none;html=1;fontSize=18;fontStyle=1;verticalAlign=middle;align=left;labelPosition=center;verticalLabelPosition=middle;" vertex="1" parent="1">
          <mxGeometry x="-420" y="595" width="100" height="30" as="geometry" />
        </mxCell>
        <mxCell id="rBNXE2SarJUZzVFOOV06-145" value="Booking" style="text;strokeColor=none;fillColor=none;html=1;fontSize=18;fontStyle=1;verticalAlign=middle;align=left;labelPosition=center;verticalLabelPosition=middle;" vertex="1" parent="1">
          <mxGeometry x="-160" y="675" width="100" height="30" as="geometry" />
        </mxCell>
        <mxCell id="rBNXE2SarJUZzVFOOV06-146" value="Employee" style="text;strokeColor=none;fillColor=none;html=1;fontSize=18;fontStyle=1;verticalAlign=middle;align=left;labelPosition=center;verticalLabelPosition=middle;" vertex="1" parent="1">
          <mxGeometry x="-540" y="855" width="100" height="30" as="geometry" />
        </mxCell>
        <mxCell id="rBNXE2SarJUZzVFOOV06-147" value="FlightCrew" style="text;strokeColor=none;fillColor=none;html=1;fontSize=18;fontStyle=1;verticalAlign=middle;align=left;labelPosition=center;verticalLabelPosition=middle;" vertex="1" parent="1">
          <mxGeometry x="183" y="975" width="100" height="30" as="geometry" />
        </mxCell>
      </root>
    </mxGraphModel>
  </diagram>
</mxfile>
